<svg xmlns="http://www.w3.org/2000/svg" width="86" height="86" viewBox="0 0 86 86">
  <metadata><?xpacket begin="﻿" id="W5M0MpCehiHzreSzNTczkc9d"?>
<x:xmpmeta xmlns:x="adobe:ns:meta/" x:xmptk="Adobe XMP Core 5.6-c142 79.160924, 2017/07/13-01:06:39        ">
   <rdf:RDF xmlns:rdf="http://www.w3.org/1999/02/22-rdf-syntax-ns#">
      <rdf:Description rdf:about=""/>
   </rdf:RDF>
</x:xmpmeta>
                                                                                                    
                                                                                                    
                                                                                                    
                                                                                                    
                                                                                                    
                                                                                                    
                                                                                                    
                                                                                                    
                                                                                                    
                                                                                                    
                                                                                                    
                                                                                                    
                                                                                                    
                                                                                                    
                                                                                                    
                                                                                                    
                                                                                                    
                                                                                                    
                                                                                                    
                                                                                                    
                           
<?xpacket end="w"?></metadata>
<defs>
    <style>
      .cls-1 {
        fill: #fff;
        fill-rule: evenodd;
      }
    </style>
  </defs>
  <path id="Forma_1" data-name="Forma 1" class="cls-1" d="M553.626,5115.05a1.681,1.681,0,1,0-2.375,2.38A1.681,1.681,0,0,0,553.626,5115.05Zm25.75-22.28c-0.033-.02-11.094-6.03-13.328-7.17-1.965-3.25-8.141-13.47-8.142-13.47a6.723,6.723,0,0,0-5.166-3.22,1.657,1.657,0,0,0-.432-0.02c-5.48,0-20.321-.01-26.744-0.02-0.04,0-.068.01-0.1,0.01h-0.05a0.045,0.045,0,0,0-.034.01,6.751,6.751,0,0,0-5.283,3.24s-6.176,10.22-8.141,13.47c-3.126,1.6-12.021,6.5-13.027,6.99a1.724,1.724,0,0,0-.3.18,6.717,6.717,0,0,0,7.491,11.12c0.279-.16,5.835-3.69,9.249-5.59a27.329,27.329,0,0,0,6.931-5.47c0.86-.94,1.136-1.23,1.587-1.73v14.02l-14.668,7.25A8.253,8.253,0,0,0,513,5128h52a8.249,8.249,0,0,0,3.79-15.63l-14.673-7.25V5091.1c0.564,0.62,1.118,1.22,1.639,1.79a27.088,27.088,0,0,0,6.879,5.41c3.428,1.9,8.962,5.43,9.252,5.6A6.721,6.721,0,0,0,579.376,5092.77Zm-45.414-20.55,10.078,0.01v5.04a5.039,5.039,0,1,1-10.078,0v-5.05Zm-6.719,0h3.36v5.05a8.4,8.4,0,1,0,16.8,0v-5.04h3.359v32.25H527.243v-32.26Zm-7.424,18.34c0,0.01-.007.01-0.011,0.01a24.113,24.113,0,0,1-6.071,4.8c-3.435,1.9-8.989,5.42-9.326,5.63a3.359,3.359,0,0,1-3.845-5.48c1.708-.86,10.709-5.83,13.327-7.14a1.668,1.668,0,0,0,.686-0.63c1.618-2.68,8.39-13.88,8.39-13.88a3.464,3.464,0,0,1,.915-1v13.27C523.854,5086.17,519.834,5090.54,519.819,5090.56Zm14.143,34.08h-6.719a3.36,3.36,0,0,1,0-6.72h6.719v6.72Zm33.339-9.26a4.894,4.894,0,0,1-2.3,9.26h-27.68v-6.72h8.4a1.68,1.68,0,1,0,0-3.36H527.243a6.715,6.715,0,0,0-5.815,10.08H513a4.889,4.889,0,0,1-2.3-9.26l15.253-7.54h26.09Zm10.356-14.9a3.357,3.357,0,0,1-4.056.53c-0.371-.23-5.86-3.72-9.336-5.64a24,24,0,0,1-6.034-4.76c-1.276-1.38-2.848-3.09-4.113-4.47v-13.26a3.368,3.368,0,0,1,.914.99s6.773,11.2,8.391,13.88a1.668,1.668,0,0,0,.686.63c2.6,1.3,11.634,6.28,13.327,7.14A3.366,3.366,0,0,1,577.657,5100.48ZM539,5042a11.76,11.76,0,1,0,11.758,11.76A11.769,11.769,0,0,0,539,5042Zm0,20.16a8.4,8.4,0,1,1,8.4-8.4A8.409,8.409,0,0,1,539,5062.16Z" transform="translate(-496 -5042)"/>
</svg>
