<svg xmlns="http://www.w3.org/2000/svg" width="78" height="68" viewBox="0 0 78 68">
  <metadata><?xpacket begin="﻿" id="W5M0MpCehiHzreSzNTczkc9d"?>
<x:xmpmeta xmlns:x="adobe:ns:meta/" x:xmptk="Adobe XMP Core 5.6-c142 79.160924, 2017/07/13-01:06:39        ">
   <rdf:RDF xmlns:rdf="http://www.w3.org/1999/02/22-rdf-syntax-ns#">
      <rdf:Description rdf:about=""/>
   </rdf:RDF>
</x:xmpmeta>
                                                                                                    
                                                                                                    
                                                                                                    
                                                                                                    
                                                                                                    
                                                                                                    
                                                                                                    
                                                                                                    
                                                                                                    
                                                                                                    
                                                                                                    
                                                                                                    
                                                                                                    
                                                                                                    
                                                                                                    
                                                                                                    
                                                                                                    
                                                                                                    
                                                                                                    
                                                                                                    
                           
<?xpacket end="w"?></metadata>
<defs>
    <style>
      .cls-1 {
        fill: #fff;
        fill-rule: evenodd;
      }
    </style>
  </defs>
  <path id="Forma_1" data-name="Forma 1" class="cls-1" d="M978.839,5115.83h-4.5v-21.32a1.588,1.588,0,1,0-3.175,0v21.32h-4.5a1.585,1.585,0,1,0,0,3.17h12.169A1.585,1.585,0,1,0,978.839,5115.83Zm16.153-63.4c0-.02-0.007-0.05-0.01-0.07s-0.007-.06-0.013-0.09-0.012-.05-0.019-0.07-0.011-.05-0.019-0.08-0.017-.04-0.025-0.07-0.017-.05-0.027-0.07a0.479,0.479,0,0,0-.031-0.07c-0.012-.02-0.023-0.05-0.036-0.07s-0.025-.05-0.037-0.07a0.633,0.633,0,0,1-.043-0.07c-0.015-.02-0.033-0.04-0.05-0.06s-0.027-.04-0.042-0.06a1.319,1.319,0,0,0-.222-0.22,0.175,0.175,0,0,0-.054-0.04,0.284,0.284,0,0,0-.07-0.05,0.237,0.237,0,0,0-.067-0.04,0.224,0.224,0,0,0-.067-0.04,0.246,0.246,0,0,0-.069-0.04l-0.071-.03-0.069-.03a0.231,0.231,0,0,1-.078-0.02c-0.023-.01-0.046-0.01-0.069-0.02s-0.054-.01-0.082-0.02-0.052-.01-0.077-0.01a0.2,0.2,0,0,0-.077-0.01,0.628,0.628,0,0,0-.137-0.01H918.587a1.585,1.585,0,0,0-1.587,1.58v35.23c0,0.05,0,.1.008,0.15,0,0.03.006,0.05,0.009,0.07s0.008,0.06.014,0.09,0.012,0.05.018,0.07,0.012,0.05.019,0.08,0.017,0.05.026,0.07,0.017,0.05.027,0.07a0.392,0.392,0,0,0,.031.07c0.012,0.02.023,0.05,0.035,0.07a0.373,0.373,0,0,0,.038.07,0.515,0.515,0,0,1,.042.07,0.49,0.49,0,0,1,.051.07,0.25,0.25,0,0,1,.042.05,1.314,1.314,0,0,0,.221.22,0.191,0.191,0,0,0,.055.04,0.284,0.284,0,0,0,.07.05,0.229,0.229,0,0,0,.068.04,0.22,0.22,0,0,0,.066.04,0.242,0.242,0,0,0,.071.04l0.069,0.03,0.071,0.03a0.22,0.22,0,0,1,.076.02c0.024,0.01.048,0.01,0.072,0.02s0.052,0.01.079,0.02a0.234,0.234,0,0,0,.083.01,0.168,0.168,0,0,0,.07.01,0.823,0.823,0,0,0,.157.01h19.247v26.44h-4.5a1.585,1.585,0,1,0,0,3.17h12.169a1.585,1.585,0,1,0,0-3.17h-4.5v-26.44h52.4a1.585,1.585,0,0,0,1.587-1.58v-35.23C995,5052.53,995,5052.48,994.992,5052.43Zm-72.573,33.79,32.1-32.05H969.8l-26.685,26.65a1.586,1.586,0,0,0,2.245,2.24l28.93-28.89H989.58l-32.1,32.05H922.419Zm-2.245-16.53,15.54-15.52h14.314l-29.854,29.81v-14.29Zm11.051-15.52-11.051,11.03v-11.03h11.051Zm49.264,32.05,8.684-8.67a1.585,1.585,0,0,0-2.244-2.24L976,5086.22H961.972l29.853-29.81v29.81H980.489Z" transform="translate(-917 -5051)"/>
</svg>
