<svg xmlns="http://www.w3.org/2000/svg" width="92" height="92" viewBox="0 0 92 92">
  <metadata><?xpacket begin="﻿" id="W5M0MpCehiHzreSzNTczkc9d"?>
<x:xmpmeta xmlns:x="adobe:ns:meta/" x:xmptk="Adobe XMP Core 5.6-c142 79.160924, 2017/07/13-01:06:39        ">
   <rdf:RDF xmlns:rdf="http://www.w3.org/1999/02/22-rdf-syntax-ns#">
      <rdf:Description rdf:about=""/>
   </rdf:RDF>
</x:xmpmeta>
                                                                                                    
                                                                                                    
                                                                                                    
                                                                                                    
                                                                                                    
                                                                                                    
                                                                                                    
                                                                                                    
                                                                                                    
                                                                                                    
                                                                                                    
                                                                                                    
                                                                                                    
                                                                                                    
                                                                                                    
                                                                                                    
                                                                                                    
                                                                                                    
                                                                                                    
                                                                                                    
                           
<?xpacket end="w"?></metadata>
<defs>
    <style>
      .cls-1 {
        fill: #fff;
        fill-rule: evenodd;
      }
    </style>
  </defs>
  <path id="Forma_1" data-name="Forma 1" class="cls-1" d="M1000.65,4734.65h-21.7v-3.06h5.855a1.35,1.35,0,0,0,0-2.7h-5.855v-3.07h4.065a5.632,5.632,0,0,0,4.008-1.66l8.864-8.86a4.237,4.237,0,1,0-1.906-1.91l-8.864,8.87a2.958,2.958,0,0,1-2.1.87h-4.065v-2.97a7.118,7.118,0,0,0-7.109-7.11h-2.973v-11.93a4.228,4.228,0,1,0-2.7,0v11.93h-3.066v-5.86a1.348,1.348,0,1,0-2.7,0v5.86h-3.067v-21.7a1.348,1.348,0,1,0-2.695,0v21.7h-3.066v-5.86a1.348,1.348,0,1,0-2.7,0v5.86h-3.066v-4.07a5.641,5.641,0,0,0-1.661-4.01l-8.866-8.86a4.238,4.238,0,1,0-3.785,2.34,4.132,4.132,0,0,0,1.879-.44l8.866,8.87a2.951,2.951,0,0,1,.871,2.1v4.07h-2.973a7.074,7.074,0,0,0-1.777.22,1.348,1.348,0,0,0,.672,2.61,4.54,4.54,0,0,1,1.1-.14h31.688a4.42,4.42,0,0,1,4.414,4.42v31.68a4.466,4.466,0,0,1-.139,1.11,1.35,1.35,0,0,0,.97,1.64,1.292,1.292,0,0,0,.336.04,1.345,1.345,0,0,0,1.305-1.01,7.211,7.211,0,0,0,.223-1.78v-2.97h11.93a4.235,4.235,0,1,0,0-2.69h-11.93v-3.07h5.855a1.35,1.35,0,0,0,0-2.7h-5.855v-3.06h21.7A1.35,1.35,0,0,0,1000.65,4734.65Zm-3.963-24.22a1.535,1.535,0,1,1,0,2.17,1.539,1.539,0,0,1-.449-1.09A1.516,1.516,0,0,1,996.687,4710.43Zm-64.09-15.12a1.534,1.534,0,1,1-2.168-2.17,1.555,1.555,0,0,1,2.168,0A1.537,1.537,0,0,1,932.6,4695.31Zm34.926,3.33a1.53,1.53,0,1,1,1.533-1.53A1.536,1.536,0,0,1,967.523,4698.64Zm27.368,47.35a1.535,1.535,0,1,1-1.534,1.53A1.536,1.536,0,0,1,994.891,4745.99Zm-11.415,28.79a4.229,4.229,0,0,0-4.868-.79l-8.866-8.87a2.951,2.951,0,0,1-.871-2.1v-4.07h2.973a7.06,7.06,0,0,0,1.776-.22,1.347,1.347,0,1,0-.671-2.61,4.547,4.547,0,0,1-1.1.14H940.156a4.42,4.42,0,0,1-4.414-4.42v-31.68a4.42,4.42,0,0,1,.139-1.11,1.348,1.348,0,0,0-2.611-.67,7.153,7.153,0,0,0-.224,1.78v2.97h-11.93a4.235,4.235,0,1,0,0,2.69h11.93v3.07h-5.854a1.35,1.35,0,0,0,0,2.7h5.854v3.06h-21.7a1.35,1.35,0,0,0,0,2.7h21.7v3.06h-5.854a1.35,1.35,0,0,0,0,2.7h5.854v3.07h-4.064a5.636,5.636,0,0,0-4.009,1.66l-8.863,8.86a4.232,4.232,0,1,0,2.347,3.79,4.228,4.228,0,0,0-.441-1.89l8.864-8.86a2.958,2.958,0,0,1,2.1-.87h4.065v2.97a7.118,7.118,0,0,0,7.109,7.11h2.973v11.93a4.228,4.228,0,1,0,2.7,0v-11.93h3.066v5.86a1.348,1.348,0,1,0,2.7,0v-5.86h3.066v21.7a1.348,1.348,0,1,0,2.695,0v-21.7h3.067v5.86a1.348,1.348,0,1,0,2.7,0v-5.86h3.066v4.07a5.641,5.641,0,0,0,1.661,4.01l8.866,8.86A4.227,4.227,0,1,0,983.476,4774.78Zm-66.367-48.77a1.535,1.535,0,1,1,1.533-1.53A1.536,1.536,0,0,1,917.109,4726.01Zm-1.8,35.56a1.533,1.533,0,0,1-2.617-1.08,1.539,1.539,0,0,1,.449-1.09A1.534,1.534,0,0,1,915.312,4761.57Zm30.7,13.32a1.533,1.533,0,1,1-1.533-1.53A1.529,1.529,0,0,1,946.01,4774.89Zm35.561,3.97a1.534,1.534,0,1,1-2.169-2.17A1.534,1.534,0,0,1,981.571,4778.86Zm-11.26-46.46a6.521,6.521,0,0,0-4.994-6.12,4.563,4.563,0,0,0,.133-1.08,5.2,5.2,0,0,0-5.4-4.95,5.724,5.724,0,0,1-8.1,0,5.2,5.2,0,0,0-5.4,4.95,4.563,4.563,0,0,0,.133,1.08,6.521,6.521,0,0,0-4.994,6.12,5.893,5.893,0,0,0,1.419,3.83,6.7,6.7,0,0,0-1.419,4.09,6.95,6.95,0,0,0,3.241,5.76h0a5.962,5.962,0,0,0,6.209,5.67A6.423,6.423,0,0,0,956,4749.6a6.423,6.423,0,0,0,4.861,2.15,6,6,0,0,0,6.2-5.32,6.292,6.292,0,0,0,3.254-5.39A5.916,5.916,0,0,1,970.311,4732.4Zm-4.77,5.51a3.606,3.606,0,0,1,2.074,3.13,3.463,3.463,0,0,1-1.187,2.54,6.044,6.044,0,0,0-3.543-2.86,1.347,1.347,0,1,0-.808,2.57,3.072,3.072,0,0,1,2.3,2.79,3.561,3.561,0,0,1-7.027,0v-8.64a3.278,3.278,0,0,1,3.514-2.97,1.35,1.35,0,0,0,0-2.7,6.582,6.582,0,0,0-3.514,1v-1.72a1.348,1.348,0,1,0-2.695,0v7.48a6.668,6.668,0,0,0-1.489-.69,1.347,1.347,0,1,0-.808,2.57,3.062,3.062,0,0,1,2.3,2.79v2.88a3.562,3.562,0,0,1-7.028,0,2.718,2.718,0,0,1,.839-1.92,1.347,1.347,0,1,0-1.9-1.91,5.755,5.755,0,0,0-.832,1.04,4.1,4.1,0,0,1-1.348-2.97,4.577,4.577,0,0,1,3.811-4.26,1.349,1.349,0,0,0-.6-2.63,8.132,8.132,0,0,0-2.472,1.01,3.288,3.288,0,0,1-.736-2.04c0-2.03,1.923-3.68,4.291-3.69h0.036a1.366,1.366,0,0,0,.87-0.32,1.349,1.349,0,0,0,.274-1.74c-0.01-.02-0.02-0.03-0.031-0.05s-0.012-.01-0.018-0.02c-0.02-.03-0.042-0.06-0.065-0.09h0a2.018,2.018,0,0,1-.493-1.29,2.747,2.747,0,0,1,5.407,0,1.348,1.348,0,0,0,2.695,0,2.747,2.747,0,0,1,5.407,0,1.859,1.859,0,0,1-.2.84,7.63,7.63,0,0,0-2.212.56,1.346,1.346,0,1,0,1.047,2.48,4.875,4.875,0,0,1,1.863-.37h0.075c2.369,0.01,4.29,1.66,4.29,3.69a3.606,3.606,0,0,1-2.074,3.13A1.345,1.345,0,0,0,965.541,4737.91Z" transform="translate(-910 -4690)"/>
</svg>
