<svg xmlns="http://www.w3.org/2000/svg" width="80" height="80" viewBox="0 0 80 80">
  <metadata><?xpacket begin="﻿" id="W5M0MpCehiHzreSzNTczkc9d"?>
<x:xmpmeta xmlns:x="adobe:ns:meta/" x:xmptk="Adobe XMP Core 5.6-c142 79.160924, 2017/07/13-01:06:39        ">
   <rdf:RDF xmlns:rdf="http://www.w3.org/1999/02/22-rdf-syntax-ns#">
      <rdf:Description rdf:about=""/>
   </rdf:RDF>
</x:xmpmeta>
                                                                                                    
                                                                                                    
                                                                                                    
                                                                                                    
                                                                                                    
                                                                                                    
                                                                                                    
                                                                                                    
                                                                                                    
                                                                                                    
                                                                                                    
                                                                                                    
                                                                                                    
                                                                                                    
                                                                                                    
                                                                                                    
                                                                                                    
                                                                                                    
                                                                                                    
                                                                                                    
                           
<?xpacket end="w"?></metadata>
<defs>
    <style>
      .cls-1 {
        fill: #fff;
        fill-rule: evenodd;
      }
    </style>
  </defs>
  <path id="Forma_1" data-name="Forma 1" class="cls-1" d="M539,4696a40,40,0,1,0,40,40A40.043,40.043,0,0,0,539,4696Zm0,76.52A36.52,36.52,0,1,1,575.522,4736,36.56,36.56,0,0,1,539,4772.52Zm-8.7-43.48a5.217,5.217,0,1,0-5.217,5.22A5.222,5.222,0,0,0,530.3,4729.04Zm-6.956,0a1.739,1.739,0,1,1,1.739,1.74A1.748,1.748,0,0,1,523.348,4729.04Zm29.565-5.21a5.215,5.215,0,1,0,5.217,5.21A5.221,5.221,0,0,0,552.913,4723.83Zm0,6.95a1.74,1.74,0,1,1,1.739-1.74A1.742,1.742,0,0,1,552.913,4730.78Zm2.9,14.36a1.743,1.743,0,0,0-2.455.13,19.343,19.343,0,0,1-28.713,0,1.739,1.739,0,0,0-2.592,2.32,22.817,22.817,0,0,0,33.9,0A1.734,1.734,0,0,0,555.812,4745.14Z" transform="translate(-499 -4696)"/>
</svg>
