<svg xmlns="http://www.w3.org/2000/svg" width="74" height="84" viewBox="0 0 74 84">
  <metadata><?xpacket begin="﻿" id="W5M0MpCehiHzreSzNTczkc9d"?>
<x:xmpmeta xmlns:x="adobe:ns:meta/" x:xmptk="Adobe XMP Core 5.6-c142 79.160924, 2017/07/13-01:06:39        ">
   <rdf:RDF xmlns:rdf="http://www.w3.org/1999/02/22-rdf-syntax-ns#">
      <rdf:Description rdf:about=""/>
   </rdf:RDF>
</x:xmpmeta>
                                                                                                    
                                                                                                    
                                                                                                    
                                                                                                    
                                                                                                    
                                                                                                    
                                                                                                    
                                                                                                    
                                                                                                    
                                                                                                    
                                                                                                    
                                                                                                    
                                                                                                    
                                                                                                    
                                                                                                    
                                                                                                    
                                                                                                    
                                                                                                    
                                                                                                    
                                                                                                    
                           
<?xpacket end="w"?></metadata>
<defs>
    <style>
      .cls-1 {
        fill: #fff;
        fill-rule: evenodd;
      }
    </style>
  </defs>
  <path id="Forma_1" data-name="Forma 1" class="cls-1" d="M1379.79,5076.47a1.408,1.408,0,0,0,1.4-.12,1.229,1.229,0,0,0,.52-1.28l-1.28-7.51,5.5-5.21a1.306,1.306,0,0,0,.38-1.28,1.227,1.227,0,0,0-1.02-.89l-7.55-1.14-3.33-6.75a1.333,1.333,0,0,0-2.31,0l-3.32,6.75-7.56,1.14a1.239,1.239,0,0,0-1.02.89,1.164,1.164,0,0,0,.38,1.28l5.51,5.21-1.28,7.51a1.207,1.207,0,0,0,.51,1.28,1.378,1.378,0,0,0,1.41.12l6.78-3.56Zm-7.17-6.11-5.25,2.68,1.02-5.6a1.293,1.293,0,0,0-.38-1.15l-4.1-3.94,5.63-.77a1.781,1.781,0,0,0,1.03-.63l2.56-5.1,2.56,5.1a1.01,1.01,0,0,0,1.02.63l5.64,0.77-4.1,3.94a1.76,1.76,0,0,0-.39,1.15l1.03,5.6-4.99-2.68a1.024,1.024,0,0,0-.64-0.12A1.2,1.2,0,0,0,1372.62,5070.36Zm36.1,54.09h-15.36v-11.7a1.212,1.212,0,0,0-1.28-1.28h-5.89v-6.49a1.21,1.21,0,0,0-1.28-1.27h-7.17v-14.38a0.558,0.558,0,0,1,.38-0.38c6.15-1.79,11.65-6.75,15.24-13.88a24.7,24.7,0,0,0,13.18-22.02v-1.65a1.2,1.2,0,0,0-1.28-1.27h-6.91c0-2.04-.13-4.71-0.26-5.98a1.352,1.352,0,0,0-1.28-1.15h-47.75a1.361,1.361,0,0,0-1.28,1.15c-0.13,1.27-.26,3.94-0.26,5.98h-7.04a1.2,1.2,0,0,0-1.28,1.27v1.78a24.422,24.422,0,0,0,13.19,22.02c3.71,7.13,9.09,11.96,15.23,13.87a0.414,0.414,0,0,1,.39.38v14.39h-7.17a1.2,1.2,0,0,0-1.28,1.27v6.49h-5.89a1.2,1.2,0,0,0-1.28,1.27v11.58h-15.11a1.275,1.275,0,1,0,0,2.55h71.44a1.2,1.2,0,0,0,1.28-1.27A1.281,1.281,0,0,0,1408.72,5124.45Zm-10.11-71.78h5.63v0.51a22.128,22.128,0,0,1-8.84,17.82A51.4,51.4,0,0,0,1398.61,5052.67Zm-56.85.51v-0.51h5.63a51.151,51.151,0,0,0,3.21,18.2A21.882,21.882,0,0,1,1341.76,5053.18Zm12.8,20.49a47.083,47.083,0,0,1-4.61-21c0-1.78.13-5.22,0.26-7.12h45.58c0.13,2.03.26,5.47,0.26,7.12a46.939,46.939,0,0,1-4.49,21c-3.32,6.62-8.32,11.2-13.95,12.86a2.953,2.953,0,0,0-2.31,2.8v14.38h-4.48v-14.38a3.257,3.257,0,0,0-2.3-2.8C1362.89,5084.87,1357.89,5080.29,1354.56,5073.67Zm7.69,32.71h21.38v5.22h-21.38v-5.22Zm28.67,18.07H1355.2v-10.43h35.72v10.43h0Z" transform="translate(-1336 -5043)"/>
</svg>
