<svg xmlns="http://www.w3.org/2000/svg" width="70" height="70" viewBox="0 0 70 70">
  <metadata><?xpacket begin="﻿" id="W5M0MpCehiHzreSzNTczkc9d"?>
<x:xmpmeta xmlns:x="adobe:ns:meta/" x:xmptk="Adobe XMP Core 5.6-c142 79.160924, 2017/07/13-01:06:39        ">
   <rdf:RDF xmlns:rdf="http://www.w3.org/1999/02/22-rdf-syntax-ns#">
      <rdf:Description rdf:about=""/>
   </rdf:RDF>
</x:xmpmeta>
                                                                                                    
                                                                                                    
                                                                                                    
                                                                                                    
                                                                                                    
                                                                                                    
                                                                                                    
                                                                                                    
                                                                                                    
                                                                                                    
                                                                                                    
                                                                                                    
                                                                                                    
                                                                                                    
                                                                                                    
                                                                                                    
                                                                                                    
                                                                                                    
                                                                                                    
                                                                                                    
                           
<?xpacket end="w"?></metadata>
<defs>
    <style>
      .cls-1 {
        fill: #fff;
        fill-rule: evenodd;
      }
    </style>
  </defs>
  <path class="cls-1" d="M1393.47,4702h-49.94a1.029,1.029,0,0,0-1.03,1.03v7a4.385,4.385,0,0,0,0,8.59v1.87a4.391,4.391,0,0,0,0,8.6v1.86a4.391,4.391,0,0,0,0,8.6v1.86a4.391,4.391,0,0,0,0,8.6v1.86a4.391,4.391,0,0,0,0,8.6v7a1.029,1.029,0,0,0,1.03,1.03h9.31a1.025,1.025,0,1,0,0-2.05h-8.29v-12.3a2.328,2.328,0,0,1,1.17,2.02,1.025,1.025,0,1,0,2.05,0,4.383,4.383,0,0,0-3.22-4.23v-8.25a2.328,2.328,0,0,1,1.17,2.02,1.025,1.025,0,1,0,2.05,0,4.383,4.383,0,0,0-3.22-4.23v-8.25a2.328,2.328,0,0,1,1.17,2.02,1.025,1.025,0,0,0,2.05,0,4.383,4.383,0,0,0-3.22-4.23v-8.25a2.328,2.328,0,0,1,1.17,2.02,1.025,1.025,0,0,0,2.05,0,4.383,4.383,0,0,0-3.22-4.23v-8.25a2.328,2.328,0,0,1,1.17,2.02,1.025,1.025,0,0,0,2.05,0,4.383,4.383,0,0,0-3.22-4.23v-6.05h47.9v6.92a1.025,1.025,0,0,0,2.05,0v-7.94A1.029,1.029,0,0,0,1393.47,4702Zm-50.97,56.33a2.334,2.334,0,0,1,0-4.32v4.32Zm0-10.46a2.334,2.334,0,0,1,0-4.32v4.32Zm0-10.46a2.334,2.334,0,0,1,0-4.32v4.32Zm0-10.46a2.334,2.334,0,0,1,0-4.32v4.32Zm0-10.46a2.334,2.334,0,0,1,0-4.32v4.32Zm17.96,0.02a1.026,1.026,0,0,0-1.45,0l-2.07,2.07-0.67-.67a1.025,1.025,0,0,0-1.45,1.45l1.4,1.4a1.015,1.015,0,0,0,.72.3,1.038,1.038,0,0,0,.73-0.3l2.79-2.8A1.008,1.008,0,0,0,1360.46,4716.51Zm1.94-3.61h-9.56a1.018,1.018,0,0,0-1.02,1.02v9.56a1.02,1.02,0,0,0,1.02,1.03h9.56a1.029,1.029,0,0,0,1.03-1.03v-9.56A1.026,1.026,0,0,0,1362.4,4712.9Zm-1.03,9.56h-7.5v-7.51h7.5v7.51Zm21.86-7.24h-15.74a1.025,1.025,0,1,0,0,2.05h15.74A1.025,1.025,0,0,0,1383.23,4715.22Zm-6.74,4.78h-9a1.025,1.025,0,1,0,0,2.05h9A1.025,1.025,0,1,0,1376.49,4720Zm-16.03,12.81a1.026,1.026,0,0,0-1.45,0l-2.07,2.07-0.67-.67a1.025,1.025,0,1,0-1.45,1.45l1.4,1.4a1.015,1.015,0,0,0,.72.3,1.038,1.038,0,0,0,.73-0.3l2.79-2.8A1.008,1.008,0,0,0,1360.46,4732.81Zm1.94-3.61h-9.56a1.012,1.012,0,0,0-1.02,1.02v9.56a1.02,1.02,0,0,0,1.02,1.03h9.56a1.029,1.029,0,0,0,1.03-1.03v-9.56A1.02,1.02,0,0,0,1362.4,4729.2Zm-1.03,9.55h-7.5v-7.5h7.5v7.5Zm21.86-7.24h-15.74a1.03,1.03,0,0,0,0,2.06h15.74A1.03,1.03,0,0,0,1383.23,4731.51Zm-6.74,4.79h-9a1.025,1.025,0,1,0,0,2.05h9A1.025,1.025,0,1,0,1376.49,4736.3Zm-16.03,12.8a1.026,1.026,0,0,0-1.45,0l-2.07,2.08-0.67-.68a1.025,1.025,0,0,0-1.45,1.45l1.4,1.4a1.015,1.015,0,0,0,.72.3,1.038,1.038,0,0,0,.73-0.3l2.79-2.8A1.008,1.008,0,0,0,1360.46,4749.1Zm1.94-3.61h-9.56a1.02,1.02,0,0,0-1.02,1.03v9.56a1.018,1.018,0,0,0,1.02,1.02h9.56a1.026,1.026,0,0,0,1.03-1.02v-9.56A1.029,1.029,0,0,0,1362.4,4745.49Zm-1.03,9.56h-7.5v-7.51h7.5v7.51Zm33.13-15.84v-24.14a1.025,1.025,0,0,0-2.05,0v24.03c-0.16,0-.31,0-0.46.01h-0.11c-0.14.01-.28,0.01-0.42,0.02a0.757,0.757,0,0,1-.15.01c-0.15.02-.3,0.03-0.45,0.04a0.148,0.148,0,0,1-.07.01l-0.5.06a0.675,0.675,0,0,1-.14.02c-0.13.02-.26,0.04-0.39,0.07a0.585,0.585,0,0,0-.13.02l-0.5.09c-0.02.01-.04,0.01-0.06,0.02-0.15.03-.29,0.06-0.44,0.1l-0.13.03c-0.14.04-.28,0.08-0.42,0.11-0.02.01-.05,0.02-0.07,0.03-0.17.04-.33,0.09-0.49,0.14-0.03.01-.07,0.03-0.1,0.04-0.13.04-.26,0.08-0.39,0.13-0.04.01-.08,0.03-0.11,0.04-0.32.12-.63,0.24-0.94,0.38-0.04.01-.07,0.03-0.11,0.04-0.13.06-.26,0.12-0.39,0.19a0.488,0.488,0,0,0-.07.03c-0.15.07-.31,0.15-0.46,0.23l-0.06.03-0.39.21a0.922,0.922,0,0,1-.08.05c-0.3.17-.59,0.35-0.88,0.54-0.02.01-.04,0.03-0.06,0.04-0.13.09-.26,0.18-0.39,0.26a0.138,0.138,0,0,1-.04.03c-0.14.11-.29,0.21-0.43,0.32h0l-0.4.31-0.05.05c-0.27.22-.54,0.45-0.79,0.68l-0.03.03c-0.12.11-.24,0.23-0.36,0.35a0.022,0.022,0,0,0-.02.02c-0.26.25-.5,0.51-0.73,0.77l-0.03.03c-0.24.27-.46,0.55-0.68,0.83h0c-0.11.14-.22,0.28-0.32,0.43a0.038,0.038,0,0,0-.02.02c-0.21.29-.41,0.58-0.6,0.89,0,0.01-.01.01-0.01,0.02-0.19.31-.37,0.62-0.54,0.94h-10.55a1.025,1.025,0,1,0,0,2.05h9.62v0.01a6.452,6.452,0,0,0-.21.62,0.488,0.488,0,0,0-.03.07c-0.06.2-.12,0.41-0.18,0.62-0.01.02-.01,0.04-0.02,0.06-0.12.44-.22,0.89-0.3,1.34v0.01h-8.88a1.025,1.025,0,1,0,0,2.05h8.63v0.01c0,0.14-.01.29-0.01,0.43v0.02c-0.01.15-.01,0.3-0.01,0.45v0.4a0.66,0.66,0,0,1,.01.14,2.348,2.348,0,0,0,.01.26c0,0.05.01,0.11,0.01,0.16,0,0.08.01,0.16,0.01,0.24,0.01,0.06.01,0.11,0.02,0.16a2.105,2.105,0,0,0,.02.25c0,0.05.01,0.1,0.01,0.15,0.01,0.08.02,0.17,0.03,0.26,0.01,0.04.01,0.08,0.02,0.13,0.01,0.09.03,0.19,0.04,0.29a0.277,0.277,0,0,1,.01.09c0.02,0.12.04,0.24,0.06,0.35,0,0.01.01,0.02,0.01,0.03a16.384,16.384,0,0,0,3.86,7.99h-23.28a1.025,1.025,0,0,0,0,2.05h25.47A16.451,16.451,0,1,0,1394.5,4739.21Zm-1.95,30.74a14.433,14.433,0,0,1-14.1-11.46c0-.02-0.01-0.04-0.01-0.06-0.02-.09-0.03-0.17-0.05-0.26a0.5,0.5,0,0,1-.02-0.12,1.846,1.846,0,0,1-.04-0.23,0.875,0.875,0,0,1-.02-0.16c-0.01-.07-0.02-0.13-0.03-0.2s-0.02-.13-0.03-0.19a1.1,1.1,0,0,0-.02-0.18,1.492,1.492,0,0,0-.02-0.21c0-.06-0.01-0.12-0.01-0.17-0.01-.08-0.01-0.16-0.02-0.23,0-.05-0.01-0.1-0.01-0.16,0-.08-0.01-0.17-0.01-0.26v-0.12c-0.01-.13-0.01-0.26-0.01-0.39a14.417,14.417,0,0,1,14.4-14.4c0.14,0,.28,0,0.42.01h0.02c0.13,0,.27.01,0.42,0.01A14.4,14.4,0,0,1,1392.55,4769.95Zm0-25.76a11.287,11.287,0,0,0-6.35,1.94,1.04,1.04,0,0,0-.28,1.43,1.029,1.029,0,0,0,1.43.27,9.359,9.359,0,1,1-2.56,2.59,1.029,1.029,0,0,0-1.72-1.13A11.36,11.36,0,1,0,1392.55,4744.19Zm1.04,8.22v-3.73a1.025,1.025,0,1,0-2.05,0v3.73a3.169,3.169,0,0,0-2.14,3,3.125,3.125,0,0,0,.42,1.57l-1.42,1.59a1.028,1.028,0,0,0,.08,1.45,1.053,1.053,0,0,0,.68.26,1.038,1.038,0,0,0,.77-0.34l1.43-1.61a3.026,3.026,0,0,0,1.2.24A3.165,3.165,0,0,0,1393.59,4752.41Zm-1.03,4.11a1.115,1.115,0,1,1,1.12-1.11A1.114,1.114,0,0,1,1392.56,4756.52Z" transform="translate(-1339 -4702)"/>
</svg>
