<svg xmlns="http://www.w3.org/2000/svg" width="100" height="100" viewBox="0 0 100 100">
  <metadata><?xpacket begin="﻿" id="W5M0MpCehiHzreSzNTczkc9d"?>
<x:xmpmeta xmlns:x="adobe:ns:meta/" x:xmptk="Adobe XMP Core 5.6-c142 79.160924, 2017/07/13-01:06:39        ">
   <rdf:RDF xmlns:rdf="http://www.w3.org/1999/02/22-rdf-syntax-ns#">
      <rdf:Description rdf:about=""/>
   </rdf:RDF>
</x:xmpmeta>
                                                                                                    
                                                                                                    
                                                                                                    
                                                                                                    
                                                                                                    
                                                                                                    
                                                                                                    
                                                                                                    
                                                                                                    
                                                                                                    
                                                                                                    
                                                                                                    
                                                                                                    
                                                                                                    
                                                                                                    
                                                                                                    
                                                                                                    
                                                                                                    
                                                                                                    
                                                                                                    
                           
<?xpacket end="w"?></metadata>
<defs>
    <style>
      .cls-1 {
        fill: #fff;
        fill-rule: evenodd;
      }
    </style>
  </defs>
  <path id="Forma_1" data-name="Forma 1" class="cls-1" d="M690,1003a45,45,0,1,1-45,45,45.053,45.053,0,0,1,45-45m0-5a50,50,0,1,0,50,50,50,50,0,0,0-50-50h0Zm19.978,44.57-26.623-17.52c-4.6-3.02-8.355-.99-8.355,4.51v36.87c0,5.5,3.765,7.54,8.368,4.53l26.6-17.41C714.568,1050.53,714.573,1045.6,709.978,1042.57Zm-3.548,7.3-23.642,15.48c-1.533,1-2.788.32-2.788-1.51v-31.69c0-1.83,1.253-2.51,2.785-1.5l23.65,15.56A2.031,2.031,0,0,1,706.43,1049.87Z" transform="translate(-640 -998)"/>
</svg>
